<?xml version="1.0" encoding="UTF-8" standalone="no"?>
<!DOCTYPE svg PUBLIC "-//W3C//DTD SVG 1.1//EN" "http://www.w3.org/Graphics/SVG/1.1/DTD/svg11.dtd">
<svg width="100%" height="100%" viewBox="0 0 187 59" version="1.1" xmlns="http://www.w3.org/2000/svg" xmlns:xlink="http://www.w3.org/1999/xlink" xml:space="preserve" xmlns:serif="http://www.serif.com/" style="fill-rule:evenodd;clip-rule:evenodd;stroke-linejoin:round;stroke-miterlimit:2;">
    <path d="M76.34,55.9L76.74,55.9C76.747,55.9 76.754,55.9 76.76,55.9C77.079,55.9 77.34,55.639 77.34,55.32C77.34,55.314 77.34,55.307 77.34,55.3C77.34,54.9 77.14,54.6 76.74,54.6L76.34,54.6L76.34,55.9ZM75.34,54L76.94,54C77.84,54 78.14,54.6 78.14,55.3C78.14,56.2 77.64,56.6 76.74,56.6L76.24,56.6L76.24,58.3L75.34,58.3L75.34,54ZM79.64,54.7L80.04,56.6L79.24,56.6L79.64,54.7ZM79,54L77.9,58.3L78.8,58.3L79,57.4L80.1,57.4L80.3,58.3L81.2,58.3L80.14,54L79,54ZM82.44,55.9L82.84,55.9C83.169,55.9 83.44,55.629 83.44,55.3C83.44,54.971 83.169,54.7 82.84,54.7L82.44,54.7L82.44,55.9ZM81.54,54L83.14,54C83.175,53.996 83.21,53.994 83.246,53.994C83.794,53.994 84.246,54.446 84.246,54.994C84.246,55.03 84.244,55.065 84.24,55.1C84.24,55.7 84.04,56.1 83.54,56.2C84.14,56.3 84.24,56.6 84.24,57.5C84.24,57.9 84.24,58.2 84.44,58.3L83.54,58.3C83.46,58.183 83.425,58.041 83.44,57.9L83.44,57.1C83.441,57.09 83.441,57.079 83.441,57.069C83.441,56.811 83.229,56.599 82.971,56.599C82.961,56.599 82.95,56.599 82.94,56.6L82.44,56.6L82.44,58.4L81.54,58.4L81.54,54ZM84.54,54L84.54,54.7L85.54,54.7L85.54,58.3L86.34,58.3L86.34,54.7L87.34,54.7L87.34,54L84.54,54ZM90.44,57.7C90.94,57.7 91.04,57.3 91.04,56.1C91.04,54.9 90.94,54.5 90.44,54.5C89.94,54.5 89.84,54.9 89.84,56.1C89.84,57.3 89.94,57.7 90.44,57.7M90.44,53.9C91.74,53.9 91.94,54.8 91.94,56.1C91.94,57.4 91.74,58.3 90.44,58.3C89.14,58.3 88.94,57.4 88.94,56.1C88.94,54.8 89.14,53.9 90.44,53.9M92.44,54L92.44,58.3L93.34,58.3L93.34,56.4L94.74,56.4L94.74,55.7L93.34,55.7L93.34,54.7L94.84,54.7L94.84,54L92.44,54ZM96.44,54L96.44,54.7L97.34,54.7L97.34,58.3L98.24,58.3L98.24,54.7L99.14,54.7L99.14,54L96.44,54ZM101.34,54L101.34,55.6L100.34,55.6L100.34,54L99.54,54L99.54,58.3L100.34,58.3L100.34,56.4L101.34,56.4L101.34,58.3L102.24,58.3L102.24,54L101.34,54ZM102.84,54L102.84,58.3L105.24,58.3L105.24,57.6L103.74,57.6L103.74,56.4L105.14,56.4L105.14,55.7L103.74,55.7L103.74,54.7L105.24,54.7L105.24,54L102.84,54ZM108.94,55.4C108.94,54.8 108.84,54.5 108.44,54.5C108.04,54.5 107.94,54.9 107.94,56.1C107.94,57.3 108.14,57.6 108.54,57.6C108.94,57.6 109.04,57.4 109.04,56.5L109.94,56.5C109.94,57.4 109.74,58.2 108.54,58.2C107.34,58.2 107,57.3 107,56C107,54.7 107.2,53.8 108.5,53.8C109.8,53.8 109.8,54.7 109.8,55.3L108.9,55.3L108.94,55.4ZM112.24,54L112.24,55.6L111.24,55.6L111.24,54L110.34,54L110.34,58.3L111.24,58.3L111.24,56.4L112.24,56.4L112.24,58.3L113.14,58.3L113.14,54L112.24,54ZM113.74,54L114.64,54L114.64,58.3L113.74,58.3L113.74,54ZM117.14,55.3C117.14,55 117.04,54.6 116.64,54.6C116.24,54.6 116.04,55 116.04,56.1C116.04,57.2 116.14,57.8 116.64,57.8C116.84,57.8 117.14,57.6 117.14,57.1L117.14,56.7L116.54,56.7L116.54,56.1L117.94,56.1L117.94,58.4L117.34,58.4L117.34,57.9C117.148,58.212 116.806,58.402 116.44,58.4C115.34,58.4 115.14,57.6 115.14,56.1C115.14,54.6 115.44,53.9 116.54,53.9C117.44,53.9 117.84,54.4 117.84,55.3L117.14,55.3ZM121.94,54L121.44,57.2L120.94,54L120.14,54L119.64,57.2L119.14,54L118.34,54L119.14,58.3L120.04,58.3L120.54,55.2L121.04,58.3L122.04,58.3L122.74,54L121.94,54ZM123.14,54L123.14,58.3L125.54,58.3L125.54,57.6L123.94,57.6L123.94,56.4L125.44,56.4L125.44,55.7L123.94,55.7L123.94,54.7L125.54,54.7L125.54,54L123.14,54ZM126.04,54L126.04,58.3L128.34,58.3L128.34,57.6L126.84,57.6L126.84,54L126.04,54ZM128.74,54L128.74,58.3L131.14,58.3L131.14,57.6L129.64,57.6L129.64,54L128.74,54ZM134.84,55.3C134.84,55 134.74,54.6 134.34,54.6C133.94,54.6 133.74,55 133.74,56.1C133.74,57.2 133.84,57.8 134.34,57.8C134.54,57.8 134.84,57.6 134.84,57.1L134.84,56.7L134.24,56.7L134.24,56.1L135.64,56.1L135.64,58.4L135,58.4L135,57.9C134.808,58.212 134.466,58.402 134.1,58.4C133,58.4 132.8,57.6 132.8,56.1C132.8,54.6 133.1,53.9 134.2,53.9C135.1,53.9 135.5,54.4 135.5,55.3L134.84,55.3ZM137.14,55.9L137.54,55.9C137.869,55.9 138.14,55.629 138.14,55.3C138.14,54.971 137.869,54.7 137.54,54.7L137.14,54.7L137.14,55.9ZM136.34,54L137.94,54C137.975,53.996 138.01,53.994 138.046,53.994C138.594,53.994 139.046,54.446 139.046,54.994C139.046,55.03 139.044,55.065 139.04,55.1C139.04,55.7 138.84,56.1 138.34,56.2C138.94,56.3 139.04,56.6 139.04,57.5C139.04,57.9 139.04,58.2 139.24,58.3L138.34,58.3C138.26,58.183 138.225,58.041 138.24,57.9L138.24,57.1C138.241,57.09 138.241,57.079 138.241,57.069C138.241,56.811 138.029,56.599 137.771,56.599C137.761,56.599 137.75,56.599 137.74,56.6L137.24,56.6L137.24,58.4L136.34,58.4L136.34,54ZM141,57.7C141.5,57.7 141.6,57.3 141.6,56.1C141.6,54.9 141.5,54.5 141,54.5C140.5,54.5 140.4,54.9 140.4,56.1C140.4,57.3 140.4,57.7 141,57.7M141,53.9C142.3,53.9 142.5,54.8 142.5,56.1C142.5,57.4 142.3,58.3 141,58.3C139.7,58.3 139.5,57.4 139.5,56.1C139.5,54.8 139.7,53.9 141,53.9M143.74,54L143.74,57C143.74,57.4 143.84,57.7 144.24,57.7C144.64,57.7 144.74,57.4 144.74,57L144.74,54L145.64,54L145.64,57C145.646,57.049 145.649,57.099 145.649,57.149C145.649,57.84 145.08,58.409 144.389,58.409C144.339,58.409 144.289,58.406 144.24,58.4C143.54,58.4 142.84,58.2 142.84,57L142.84,54L143.74,54ZM147,55.9L147.4,55.9C147.407,55.9 147.414,55.9 147.42,55.9C147.739,55.9 148,55.639 148,55.32C148,55.314 148,55.307 148,55.3C148,54.9 147.8,54.6 147.4,54.6L147,54.6L147,55.9ZM146,54L147.6,54C148.5,54 148.8,54.6 148.8,55.3C148.8,56.2 148.3,56.6 147.4,56.6L146.9,56.6L146.9,58.3L146,58.3L146,54ZM26.84,30.1C26.542,30.546 26.37,31.064 26.34,31.6L26.34,31.7C26.4,32.261 26.57,32.805 26.84,33.3L27.14,34.1C27.255,34.524 27.322,34.961 27.34,35.4L27.34,35.5L27.14,35.5C27.139,35.05 27.036,34.605 26.84,34.2L26.84,34.1C26.58,33.446 26.169,32.864 25.64,32.4C25.146,31.897 24.433,31.671 23.74,31.8C23.375,31.887 23.075,32.149 22.94,32.5C22.781,33.105 23.022,33.749 23.54,34.1L23.84,34.4C24.178,34.584 24.456,34.862 24.64,35.2C24.64,35.3 24.74,35.7 24.54,35.8C24.488,35.857 24.417,35.893 24.34,35.9C24.234,35.891 24.149,35.806 24.14,35.7L24.14,35.5L24.04,35.4L23.94,35.4C23.783,35.568 23.783,35.832 23.94,36C24.069,36.313 24.412,36.485 24.74,36.4C25.045,36.251 25.24,35.94 25.24,35.6C25.256,35.395 25.221,35.189 25.14,35L25.14,34.9L25.04,34.6L25.04,34.2C25.069,34.026 25.181,33.876 25.34,33.8C25.529,33.719 25.735,33.684 25.94,33.7C26.229,33.771 26.479,33.95 26.64,34.2L26.84,34.4C27.032,34.735 27.135,35.114 27.14,35.5C27.04,35.5 26.84,35.6 26.84,35.7C26.84,35.8 27.04,35.9 27.14,35.9C27.119,36.036 27.085,36.17 27.04,36.3C26.94,36.5 26.94,36.6 26.84,36.7C26.74,36.8 26.64,36.9 26.54,36.9L26.24,36.9C26.14,36.8 26.04,36.7 26.04,36.6L25.94,36.6C25.764,36.789 25.724,37.069 25.84,37.3C25.994,37.526 26.29,37.61 26.54,37.5C26.746,37.425 26.922,37.284 27.04,37.1C27.232,36.867 27.369,36.593 27.44,36.3C27.485,36.17 27.519,36.036 27.54,35.9L27.84,35.9C27.856,36.105 27.821,36.311 27.74,36.5L27.64,36.7C27.526,36.988 27.459,37.291 27.44,37.6L27.44,38.1L27.54,38.3C27.615,38.506 27.756,38.682 27.94,38.8C28.14,38.8 28.24,38.5 28.34,38.4L28.44,38.1L28.44,37.7C28.421,37.391 28.354,37.088 28.24,36.8L28.14,36.6C28.14,36.4 28.04,36.2 28.04,36L27.94,36L28.04,36.4C28.089,36.701 28.229,36.98 28.44,37.2C28.581,37.363 28.75,37.498 28.94,37.6C29.19,37.71 29.486,37.626 29.64,37.4C29.732,37.32 29.786,37.204 29.786,37.082C29.786,36.918 29.689,36.768 29.54,36.7L29.44,36.7L29.44,36.8C29.44,36.9 29.34,37 29.24,37.1C29.204,37.146 29.149,37.173 29.09,37.173C29.031,37.173 28.976,37.146 28.94,37.1C28.84,37.1 28.74,37 28.64,36.9C28.535,36.79 28.465,36.65 28.44,36.5C28.395,36.37 28.361,36.236 28.34,36.1C28.44,36.1 28.64,36 28.64,35.9C28.64,35.8 28.44,35.7 28.34,35.7C28.319,35.294 28.463,34.897 28.74,34.6L28.84,34.4C29.029,34.179 29.27,34.007 29.54,33.9C29.744,33.834 29.968,33.871 30.14,34C30.264,34.114 30.365,34.25 30.44,34.4L30.44,34.8L30.34,35L30.34,35.1C30.25,35.286 30.215,35.495 30.24,35.7C30.197,36.05 30.407,36.385 30.74,36.5C30.81,36.528 30.885,36.542 30.961,36.542C31.231,36.542 31.469,36.36 31.54,36.1C31.64,35.8 31.64,35.6 31.54,35.5L31.44,35.5C31.385,35.5 31.34,35.545 31.34,35.6L31.34,35.8L31.14,36C31.03,36.013 30.92,35.976 30.84,35.9C30.64,35.8 30.64,35.5 30.74,35.3C30.886,34.968 31.131,34.689 31.44,34.5L31.74,34.2C32.296,33.881 32.549,33.206 32.34,32.6C32.27,32.21 31.936,31.917 31.54,31.9C30.85,31.819 30.158,32.038 29.64,32.5C29.111,32.964 28.7,33.546 28.44,34.2L28.44,34.3C28.135,34.627 27.957,35.053 27.94,35.5L27.74,35.5L27.74,35.4C27.758,34.961 27.825,34.524 27.94,34.1L28.24,33.3C28.51,32.805 28.68,32.261 28.74,31.7L28.74,31.6C28.71,31.064 28.538,30.546 28.24,30.1C28.04,29.8 27.74,29.4 27.54,29.4C27.34,29.4 27.04,29.8 26.84,30.1M13.64,9C13.292,9.212 12.958,9.445 12.64,9.7C11.931,10.328 11.56,11.256 11.64,12.2C11.64,12.7 11.64,12.7 11.44,12.9L10.94,13.4C10.793,13.555 10.659,13.723 10.54,13.9L10.54,13.4L10.64,12.4C10.684,11.913 10.499,11.432 10.14,11.1L9.84,10.7C9.64,10.4 9.44,10.2 9.34,10.2C9.24,10.2 9.24,10.3 9.14,10.4C8.952,11.05 8.851,11.723 8.84,12.4C8.857,12.997 9.154,13.553 9.64,13.9C9.74,13.9 9.84,14 10.04,14C10.24,14 10.34,14 10.34,14.1C10.34,14.2 9.74,14.9 9.04,15.8C8.74,16.3 8.44,16.7 8.34,16.7C8.295,16.57 8.261,16.436 8.24,16.3L8.34,16.1C8.481,15.933 8.553,15.718 8.54,15.5C8.496,14.765 8.216,14.063 7.74,13.5C7.44,13.2 7.14,12.9 7.04,12.9L6.94,12.9C6.71,13.436 6.607,14.018 6.64,14.6C6.624,14.871 6.658,15.142 6.74,15.4C6.858,15.749 7.11,16.037 7.44,16.2C7.646,16.275 7.822,16.416 7.94,16.6C8.083,16.776 8.185,16.981 8.24,17.2C8.14,17.4 7.04,19.4 6.84,19.7L6.84,18.4C6.662,17.598 6.2,16.888 5.54,16.4C5.04,15.9 4.74,15.8 4.54,15.8C4.34,15.8 4.34,16 4.34,16.2L4.34,16.4C4.175,17.037 4.246,17.712 4.54,18.3C4.87,18.996 5.494,19.51 6.24,19.7C6.44,19.8 6.74,19.9 6.74,20C6.64,20.3 5.94,22.1 5.64,22.7L5.54,22.9C5.44,22.9 5.34,22.7 5.44,22.2C5.54,21.5 5.24,21 4.34,19.9C3.74,19.2 3.24,18.9 2.94,19C2.84,19 2.74,19.2 2.74,19.3L2.74,19.5C2.74,20.2 2.64,22.1 3.64,22.8C4.051,23.081 4.542,23.222 5.04,23.2L5.24,23.2C5.44,23.2 5.54,23.3 5.54,23.2C5.54,23.1 5.44,23.3 5.34,24.1L5.34,24.3C5.091,25.453 4.924,26.623 4.84,27.8L4.64,27.8C4.84,27.3 4.44,26.6 4.14,26.2L3.74,25.9C3.475,25.47 3.093,25.123 2.64,24.9C2.245,24.665 1.799,24.528 1.34,24.5C1.346,25.368 1.552,26.224 1.94,27C2.34,28.1 3.34,28 4.04,28L4.34,28C4.54,28 4.64,28.3 4.64,28.3C4.64,28.3 4.74,29.7 4.84,31.2L4.94,32C4.94,32.2 4.94,32.2 4.84,32.2C4.785,32.2 4.74,32.155 4.74,32.1C4.64,31.9 4.04,31.2 3.74,30.8L3.64,30.7C3.018,30.204 2.234,29.954 1.44,30C0.64,30 0.14,30.1 0.04,30.3C-0.06,30.5 -0.06,30.4 0.04,30.5C0.638,31.574 1.544,32.444 2.64,33C3.064,33.134 3.529,33.018 3.84,32.7C4.04,32.6 4.14,32.4 4.34,32.4C4.54,32.4 4.84,32.6 4.94,32.6C4.94,32.9 5.14,33.2 5.24,33.9C5.397,34.753 5.632,35.59 5.94,36.4C6.248,37.21 5.84,36.5 5.64,36.4L5.44,36.2C5.073,35.762 4.633,35.39 4.14,35.1C3.448,34.798 2.676,34.727 1.94,34.9C1.527,34.934 1.138,35.111 0.84,35.4C1.164,36.014 1.606,36.557 2.14,37C2.96,37.723 4.057,38.052 5.14,37.9C5.44,37.9 5.54,37.6 5.74,37.3L5.84,36.9C5.877,36.824 5.954,36.775 6.038,36.775C6.074,36.775 6.109,36.784 6.14,36.8C6.422,37.491 6.756,38.16 7.14,38.8C7.84,40 8.24,40.4 8.24,40.5C8.186,40.554 8.116,40.589 8.04,40.6C7.94,40.6 7.74,40.4 7.44,40.3L6.44,39.8C5.615,39.587 4.745,39.621 3.94,39.9C2.94,40.2 2.74,40.5 2.74,40.5C2.957,40.87 3.226,41.207 3.54,41.5C4.14,42.1 5.74,42.4 6.94,42.5C7.84,42.5 8.14,41.7 8.34,41.3C8.357,41.195 8.391,41.094 8.44,41C8.757,41.21 9.058,41.444 9.34,41.7L10.34,42.6C11.023,43.171 11.76,43.673 12.54,44.1L12.64,44.1L12.64,44.2L12.54,44.2L12.34,44.1C11.744,43.797 11.102,43.594 10.44,43.5C9.553,43.459 8.677,43.705 7.94,44.2C7.532,44.449 7.189,44.792 6.94,45.2C7.543,45.706 8.244,46.08 9,46.3C10.165,46.715 11.459,46.567 12.5,45.9C12.8,45.7 12.8,45.4 12.8,45L12.8,44.6C12.9,44.4 13,44.3 13.1,44.3C13.2,44.3 14,44.6 16.1,45.2C17.2,45.5 17.8,45.6 18.2,45.7C18.341,45.683 18.483,45.719 18.6,45.8L18.7,45.9C18.7,45.9 18.7,46 18.5,46L18.2,46C17.532,45.94 16.859,45.973 16.2,46.1C15.325,46.352 14.554,46.878 14,47.6C13.688,47.933 13.48,48.35 13.4,48.8C14.145,49.024 14.922,49.126 15.7,49.1C16.925,49.052 18.079,48.51 18.9,47.6C19.1,47.4 19,47 18.9,46.6L18.8,46.2C18.81,46.072 18.886,45.958 19,45.9L19.2,45.8C20.258,45.962 21.296,46.23 22.3,46.6C23.395,47.102 24.33,47.899 25,48.9L25,49L26.1,48C25.1,46.7 21.3,45.2 21,45.2L20.5,45C20.512,44.894 20.546,44.792 20.6,44.7L20.7,44.5C20.859,44.297 20.962,44.055 21,43.8L21,43.4C20.934,42.686 20.693,41.999 20.3,41.4L20.2,41.2C19.923,40.61 19.468,40.12 18.9,39.8L18.6,40.5C18.476,40.854 18.409,41.225 18.4,41.6C18.388,42.223 18.525,42.84 18.8,43.4C18.989,44.044 19.471,44.564 20.1,44.8C20.1,44.9 20,45 20,45.1L19,45L17.6,44.8C16.635,44.659 15.694,44.39 14.8,44C14.8,43.9 14.9,43.7 15,43.7C15.1,43.7 15.4,43.6 16,43C16.544,42.283 16.827,41.4 16.8,40.5L16.8,39.8C16.817,39.179 16.604,38.573 16.2,38.1C15.796,37.627 16.1,38.1 15.7,38.4C14.863,39.26 14.276,40.332 14,41.5C14,41.7 13.9,41.9 13.9,42.1C13.861,42.665 14.082,43.218 14.5,43.6L14.4,43.9C14.2,43.9 14,43.8 12.6,43.1C11.774,42.752 11.026,42.242 10.4,41.6L10.6,41.5C10.8,41.4 11.1,41.3 11.6,41.1C12.1,40.9 12.3,40.5 12.6,39.8L13,39C13.329,38.13 13.329,37.17 13,36.3C12.671,35.43 12.7,36.3 11.8,36.9C10.936,37.6 10.364,38.6 10.2,39.7C10.2,39.9 10.1,40 10.1,40.1C10.086,40.475 10.232,40.838 10.5,41.1L10.2,41.4C9.626,40.945 9.091,40.443 8.6,39.9C8.045,39.066 7.544,38.198 7.1,37.3C7.547,37.134 8.033,37.099 8.5,37.2C9.2,37.3 9.6,36.9 10.2,36.1L10.8,35.4C11.7,34.4 11.7,33.7 11.6,33.4C11.591,33.294 11.506,33.209 11.4,33.2C10.455,33.343 9.542,33.648 8.7,34.1C7.806,34.775 7.227,35.787 7.1,36.9L6.9,36.9C6.8,36.7 6.2,35 6.2,35C6,34.555 5.866,34.083 5.8,33.6L5.7,33.2C5.988,33.098 6.296,33.064 6.6,33.1C7.2,33.3 7.8,33.1 9.1,32.3C9.911,31.713 10.423,30.798 10.5,29.8L9.5,29.7C8.55,29.75 7.639,30.1 6.9,30.7C6.439,30.949 6.11,31.388 6,31.9C5.925,32.143 5.824,32.378 5.7,32.6C5.8,32.9 5.6,32.9 5.5,32.9C5.423,32.606 5.39,32.303 5.4,32L5.3,31.5C5.173,30.606 5.106,29.703 5.1,28.8C5.205,28.783 5.306,28.749 5.4,28.7C5.848,28.862 6.325,28.93 6.8,28.9C7.683,28.877 8.503,28.43 9,27.7C9.397,27.243 9.673,26.692 9.8,26.1C8.956,26.053 8.109,26.155 7.3,26.4C6.432,26.83 5.73,27.532 5.3,28.4C5.223,28.407 5.152,28.443 5.1,28.5C5.1,27.998 5.134,27.497 5.2,27C5.293,26.227 5.427,25.459 5.6,24.7L5.7,24.1C5.687,23.99 5.724,23.88 5.8,23.8C5.9,23.7 6,23.8 6.1,23.8L6.3,23.9C6.5,24 6.8,24.2 7.2,24.4C8.077,24.49 8.959,24.278 9.7,23.8C10.242,23.552 10.645,23.075 10.8,22.5L10.4,22.3C9.876,22.026 9.291,21.889 8.7,21.9C8,21.9 6.8,22.9 6.4,23.2C6.27,23.336 6.088,23.409 5.9,23.4C5.845,23.4 5.8,23.355 5.8,23.3L6.1,22.3C6.3,21.8 6.8,20.4 6.9,20.3C7.171,20.353 7.417,20.494 7.6,20.7C7.8,21 8,21.2 8.8,21.3C9.6,21.4 9.9,21.1 10.7,20.7L10.9,20.6C11.4,20.3 11.6,20.1 11.6,19.9C11.6,19.7 11.6,19.7 11.4,19.6C10.747,19.286 10.023,19.149 9.3,19.2C8.6,19.264 7.92,19.468 7.3,19.8C7.246,19.854 7.176,19.889 7.1,19.9C7.1,19.8 7.4,19.4 7.5,19.1L7.9,18.5L7.9,18.4C8.1,18.1 8.4,17.4 8.6,17.5L8.9,17.6C9.131,17.795 9.405,17.932 9.7,18C10.4,18.3 10.8,18.2 11.8,17.7C12.2,17.5 12.4,17.4 12.4,17.2C12.4,17 12.3,17 12.1,16.9L11.9,16.8C11.5,16.5 11.5,16.4 10.3,16.4C9.769,16.387 9.257,16.606 8.9,17L8.8,17.1C9.029,16.645 9.297,16.21 9.6,15.8L10,15.2C10,15.2 10.4,14.7 10.5,14.6C10.682,14.787 10.883,14.954 11.1,15.1C11.688,15.395 12.364,15.466 13,15.3C14,15.1 14.1,14.4 14.1,14.4C13.831,14.157 13.528,13.955 13.2,13.8C12.8,13.6 12,13.9 11.4,14.2C11.177,14.3 10.942,14.367 10.7,14.4C10.889,14.039 11.163,13.73 11.5,13.5C11.89,13.056 12.326,12.654 12.8,12.3C13.371,11.959 13.743,11.363 13.8,10.7L13.8,10.2C13.778,9.794 13.711,9.391 13.6,9L13.64,9ZM33.54,12.6C36.577,12.584 39.581,13.232 42.34,14.5L42.34,14.3C42.24,13.3 42.24,12.3 42.24,11.2C42.411,8.257 43.231,5.389 44.64,2.8C44.64,2.7 44.74,2.7 44.74,2.6C43.765,2.447 42.786,2.878 42.24,3.7C41.991,4.439 42.102,5.254 42.54,5.9C42.54,6 41.84,6.1 41.84,6.1C41.814,5.378 41.213,4.799 40.491,4.799C40.474,4.799 40.457,4.799 40.44,4.8C39.944,4.802 39.486,5.07 39.24,5.5C40.138,5.968 40.713,6.888 40.74,7.9C40.726,8.711 40.361,9.478 39.74,10L39.64,10.1C39.458,10.211 39.252,10.279 39.04,10.3L38.84,10.3C38.346,10.3 37.94,9.894 37.94,9.4C37.94,8.906 38.346,8.5 38.84,8.5C39.04,8.5 39.14,8.6 39.24,8.6C39.351,8.418 39.419,8.212 39.44,8C39.44,7.122 38.718,6.4 37.84,6.4C36.962,6.4 36.24,7.122 36.24,8L36.34,8C36.834,8 37.24,8.406 37.24,8.9C37.252,9.361 36.9,9.758 36.44,9.8L36.34,9.8C36.014,9.808 35.696,9.702 35.44,9.5L35.24,9.3C34.959,8.889 34.818,8.398 34.84,7.9C34.844,7.482 34.947,7.071 35.14,6.7L35.24,6.6C35.718,5.726 36.644,5.185 37.64,5.2C37.614,4.684 37.306,4.223 36.84,4C36.178,3.638 35.338,3.859 34.94,4.5L34.84,4.6C34.84,4.6 34.64,4.8 34.44,4.7C34.24,4.6 34.14,4.4 34.34,4.1C34.44,4 34.44,3.9 34.54,3.8L34.54,3.7C34.851,3.34 35.015,2.876 35,2.4C35.032,1.764 34.728,1.156 34.2,0.8C33.882,0.59 33.61,0.318 33.4,0L33.4,0.1C33.3,0.5 32.6,0.8 32.6,0.8C32.072,1.156 31.768,1.764 31.8,2.4C31.796,2.881 31.975,3.346 32.3,3.7L32.3,3.8C32.352,3.909 32.419,4.01 32.5,4.1C32.7,4.4 32.6,4.6 32.4,4.7C32.261,4.695 32.125,4.661 32,4.6L31.9,4.5C31.674,4.06 31.22,3.783 30.726,3.783C30.468,3.783 30.215,3.858 30,4C29.517,4.201 29.2,4.676 29.2,5.2C30.202,5.162 31.14,5.709 31.6,6.6L31.7,6.7C31.893,7.071 31.996,7.482 32,7.9C31.974,8.391 31.837,8.869 31.6,9.3C31.363,9.731 31.5,9.5 31.4,9.5C31.144,9.702 30.826,9.808 30.5,9.8L30.4,9.8C29.956,9.791 29.596,9.424 29.596,8.98C29.596,8.953 29.597,8.927 29.6,8.9C29.6,8.406 30.006,8 30.5,8L30.6,8C30.6,7.122 29.878,6.4 29,6.4C28.122,6.4 27.4,7.122 27.4,8C27.421,8.212 27.489,8.418 27.6,8.6C27.717,8.52 27.859,8.485 28,8.5C28.494,8.5 28.9,8.906 28.9,9.4C28.9,9.894 28.494,10.3 28,10.3L27.8,10.3C27.6,10.2 27.4,10.2 27.2,10.1L27.3,9.9C26.679,9.378 26.314,8.611 26.3,7.8C26.367,6.801 26.931,5.899 27.8,5.4C27.554,4.97 27.096,4.702 26.6,4.7C25.874,4.694 25.267,5.275 25.24,6C25.213,6.725 24.54,5.9 24.54,5.8C25.025,5.174 25.14,4.333 24.84,3.6C24.308,2.761 23.317,2.325 22.34,2.5C22.34,2.6 22.44,2.6 22.44,2.7C23.792,5.312 24.608,8.168 24.84,11.1C24.84,12.2 24.84,13.2 24.74,14.2L24.74,14.4C27.537,13.262 30.521,12.652 33.54,12.6ZM53.44,8.9C53.387,9.432 53.387,9.968 53.44,10.5C53.497,11.163 53.869,11.759 54.44,12.1C54.94,12.421 55.38,12.827 55.74,13.3C56.053,13.556 56.323,13.859 56.54,14.2C56.301,14.154 56.067,14.087 55.84,14C55.277,13.735 54.662,13.599 54.04,13.6C53.691,13.714 53.379,13.921 53.14,14.2C52.901,14.479 53.24,14.9 54.24,15.1C54.876,15.266 55.552,15.195 56.14,14.9C56.377,14.784 56.583,14.612 56.74,14.4C56.84,14.5 57.24,15 57.24,15L57.64,15.6C57.943,16.01 58.211,16.445 58.44,16.9L58.34,16.8C57.983,16.406 57.471,16.187 56.94,16.2C55.84,16.2 55.74,16.3 55.34,16.6L54.94,16.9C54.84,17 54.64,17.1 54.64,17.2C54.64,17.3 54.84,17.5 55.24,17.7C56.24,18.2 56.64,18.3 57.34,18L58.34,17.5C58.54,17.4 58.94,18.1 59.04,18.4L59.04,18.5L59.44,19.2C59.632,19.433 59.769,19.707 59.84,20C59.764,19.989 59.694,19.954 59.64,19.9C59.015,19.582 58.337,19.379 57.64,19.3C56.917,19.249 56.193,19.386 55.54,19.7C55.44,19.8 55.34,19.9 55.34,20C55.34,20.1 55.54,20.5 56.04,20.7L56.24,20.8C56.75,21.277 57.449,21.497 58.14,21.4C58.94,21.3 59.14,21.2 59.34,20.8C59.54,20.4 59.94,20.3 59.94,20.4C60.251,21.048 60.518,21.716 60.74,22.4L60.94,23.1L61.04,23.4L60.94,23.5C60.84,23.5 60.74,23.5 60.44,23.3C59.796,22.679 59.004,22.232 58.14,22C57.526,21.976 56.913,22.078 56.34,22.3L56.04,22.5C56.224,23.059 56.619,23.526 57.14,23.8C57.889,24.258 58.764,24.468 59.64,24.4C59.998,24.37 60.326,24.188 60.54,23.9L60.84,23.8L61.14,23.8C61.24,23.8 61.24,23.9 61.24,24.1L61.34,24.7C61.44,25.4 61.64,26.3 61.74,27C61.806,27.497 61.84,27.998 61.84,28.5L61.64,28.5C61.254,27.578 60.542,26.831 59.64,26.4C58.914,26.083 58.132,25.913 57.34,25.9C57.416,26.509 57.699,27.074 58.14,27.5C58.669,28.194 59.47,28.631 60.34,28.7C61.34,28.8 61.74,28.6 61.74,28.5L62.04,28.6C62.034,29.503 61.967,30.406 61.84,31.3L61.74,31.8C61.685,32.097 61.651,32.398 61.64,32.7C61.54,32.7 61.44,32.8 61.34,32.6C61.1,32.446 60.951,32.185 60.94,31.9C60.83,31.388 60.501,30.949 60.04,30.7C59.31,30.086 58.394,29.733 57.44,29.7L56.44,29.7C56.517,30.698 57.029,31.613 57.84,32.2C59.14,33 59.74,33.2 60.34,33C60.644,32.964 60.952,32.998 61.24,33.1C61.219,33.236 61.185,33.37 61.14,33.5C61.04,33.8 61.04,34 60.74,34.9C60.74,34.9 60.04,36.7 60.04,36.8L59.84,36.8C59.692,35.694 59.118,34.689 58.24,34C57.398,33.548 56.485,33.243 55.54,33.1C55.434,33.109 55.349,33.194 55.34,33.3C55.24,33.6 55.24,34.3 56.14,35.3L56.74,36C57.34,36.8 57.74,37.2 58.44,37.1C58.906,36.989 59.395,37.024 59.84,37.2C59.426,38.051 58.924,38.855 58.34,39.6C57.87,40.129 57.369,40.63 56.84,41.1C56.713,41.031 56.609,40.927 56.54,40.8C56.808,40.538 56.954,40.175 56.94,39.8C56.955,39.659 56.92,39.517 56.84,39.4C56.676,38.3 56.104,37.3 55.24,36.6C54.865,36.328 54.446,36.125 54,36C53.729,36.88 53.729,37.82 54,38.7L54.4,39.5C54.7,40.1 54.8,40.5 55.4,40.8C55.8,41 56.2,41.1 56.4,41.2L56.6,41.3C56,41.972 55.245,42.487 54.4,42.8C53.817,43.104 53.216,43.371 52.6,43.6L52.5,43.3C52.918,42.918 53.139,42.365 53.1,41.8C53.116,41.595 53.081,41.389 53,41.2C52.74,40.026 52.15,38.95 51.3,38.1C50.9,37.8 50.8,37.8 50.8,37.8C50.396,38.273 50.183,38.879 50.2,39.5L50.2,40.2C50.139,41.105 50.425,41.999 51,42.7C51.6,43.3 51.9,43.4 52,43.4C52.1,43.4 52.1,43.7 52.2,43.7C51.3,44.073 50.361,44.342 49.4,44.5L48,44.7L47,44.8C46.951,44.706 46.917,44.605 46.9,44.5C47.1,44.5 47.8,44.2 48.2,43.1C48.428,42.525 48.563,41.917 48.6,41.3C48.582,40.926 48.515,40.556 48.4,40.2L48.1,39.5C47.537,39.827 47.084,40.314 46.8,40.9L46.7,41.1C46.307,41.699 46.066,42.386 46,43.1L46,43.5C46.082,43.741 46.182,43.975 46.3,44.2L46.4,44.4C46.476,44.48 46.513,44.59 46.5,44.7C46.327,44.749 46.159,44.816 46,44.9C45.7,45 41.9,46.4 40.9,47.7L42,48.7L42,48.6C42.67,47.599 43.605,46.802 44.7,46.3C45.704,45.93 46.742,45.662 47.8,45.5L48,45.6C48.114,45.658 48.19,45.772 48.2,45.9L47.9,46.6C47.8,46.9 47.7,47.3 47.9,47.5C48.666,48.48 49.856,49.038 51.1,49C51.878,49.026 52.655,48.924 53.4,48.7C53.32,48.25 53.112,47.833 52.8,47.5C52.218,46.808 51.457,46.289 50.6,46C49.941,45.875 49.268,45.841 48.6,45.9L48.3,45.9C48.224,45.889 48.154,45.854 48.1,45.8L48.2,45.7C48.3,45.6 48.4,45.6 48.7,45.6C49,45.6 49.6,45.4 50.8,45.1C51.817,44.861 52.819,44.56 53.8,44.2C53.927,44.269 54.031,44.373 54.1,44.5L54.1,44.9C54.1,45.2 54.1,45.6 54.4,45.8C55.459,46.416 56.729,46.561 57.9,46.2C58.67,45.985 59.385,45.611 60,45.1C59.763,44.683 59.417,44.337 59,44.1C58.263,43.605 57.387,43.359 56.5,43.4C55.838,43.494 55.196,43.697 54.6,44L54.4,44.1L54.2,44.1L54.2,44L54.3,44C55.08,43.573 55.817,43.071 56.5,42.5L57.5,41.6C57.752,41.311 58.058,41.074 58.4,40.9C58.449,40.994 58.483,41.095 58.5,41.2C58.7,41.6 59,42.4 59.9,42.4C61.1,42.4 62.8,42 63.3,41.4C63.614,41.107 63.883,40.77 64.1,40.4C64.317,40.03 64,40.1 62.9,39.8C62.095,39.493 61.205,39.493 60.4,39.8L59.4,40.3C59.1,40.4 58.9,40.6 58.8,40.6C58.724,40.589 58.654,40.554 58.6,40.5C59.057,39.997 59.428,39.423 59.7,38.8C60.084,38.16 60.418,37.491 60.7,36.8C60.731,36.784 60.766,36.775 60.802,36.775C60.886,36.775 60.963,36.824 61,36.9L61.2,37.2C61.3,37.5 61.5,37.8 61.8,37.8C62.882,37.936 63.972,37.609 64.8,36.9C65.359,36.483 65.806,35.933 66.1,35.3C65.775,35.053 65.4,34.882 65,34.8C64.221,34.724 63.434,34.827 62.7,35.1C62.187,35.361 61.742,35.738 61.4,36.2L61.2,36.4C61,36.5 61,36.4 60.9,36.4C61.194,35.585 61.428,34.749 61.6,33.9C61.606,33.468 61.746,33.049 62,32.7C62.1,32.6 62.4,32.4 62.6,32.5C62.795,32.542 62.971,32.648 63.1,32.8C63.4,33 63.8,33.4 64.3,33.1C65.375,32.515 66.273,31.651 66.9,30.6L66.9,30.4C66.9,30 66.5,29.9 65.7,29.9C64.906,29.854 64.122,30.104 63.5,30.6L63.4,30.7C63.1,31.1 62.5,31.8 62.4,32C62.4,32.055 62.355,32.1 62.3,32.1C62.246,32.046 62.211,31.976 62.2,31.9L62.3,31.1C62.4,29.6 62.5,28.3 62.5,28.2C62.5,28.1 62.6,27.9 62.8,27.9L63.1,27.9C63.8,27.9 64.8,28 65.2,26.9C65.596,26.126 65.802,25.269 65.8,24.4C65.341,24.428 64.895,24.565 64.5,24.8C64.047,25.023 63.665,25.37 63.4,25.8L63.2,26.1C62.786,26.522 62.6,27.118 62.7,27.7L62.5,27.7C62.416,26.523 62.249,25.353 62,24.2L62,24C61.913,23.739 61.846,23.471 61.8,23.2L62.1,23.1L62.3,23.1C62.798,23.122 63.289,22.981 63.7,22.7C64.7,22 64.6,20.1 64.6,19.4L64.6,19.2C64.6,19 64.5,18.9 64.4,18.9C64.1,18.8 63.6,19.1 63,19.8C62,21 61.7,21.5 61.9,22.1C62.1,22.7 61.9,22.8 61.8,22.8L61.7,22.6C61.385,21.647 61.018,20.712 60.6,19.8C60.6,19.7 60.9,19.6 61.1,19.5C61.7,19.2 62.5,18.9 62.8,18.1C63.095,17.512 63.166,16.836 63,16.2L63,16C62.997,15.843 62.923,15.696 62.8,15.6C62.6,15.5 62.4,15.7 61.8,16.2C61.14,16.688 60.678,17.398 60.5,18.2L60.5,19.5C60.3,19.2 59.2,17.2 59.1,17C59.155,16.781 59.257,16.576 59.4,16.4C59.518,16.216 59.694,16.075 59.9,16C60.23,15.837 60.482,15.549 60.6,15.2C60.682,14.942 60.716,14.671 60.7,14.4C60.666,13.824 60.565,13.253 60.4,12.7L60.3,12.7C60.1,12.7 59.8,12.9 59.5,13.3C59.065,13.886 58.789,14.575 58.7,15.3C58.687,15.518 58.759,15.733 58.9,15.9L59,16.1C59,16.3 59,16.5 58.9,16.5C58.699,16.176 58.465,15.874 58.2,15.6C57.5,14.7 57,14 56.9,13.9C57.025,13.839 57.161,13.805 57.3,13.8C57.5,13.8 57.7,13.8 57.7,13.7C58.13,13.306 58.412,12.776 58.5,12.2C58.489,11.523 58.388,10.85 58.2,10.2C58.191,10.094 58.106,10.009 58,10C57.9,10 57.7,10.1 57.5,10.5L57.2,10.9C56.9,11.3 56.6,11.6 56.7,12.2L56.8,13.2C56.8,13.4 56.8,13.6 56.9,13.6C56.8,13.6 56.6,13.3 56.4,13.1L56.1,12.7L55.9,12.5C55.7,12.3 55.7,12.3 55.7,11.8C55.745,10.862 55.38,9.948 54.7,9.3L53.4,8.9L53.44,8.9Z" style="fill:rgb(62,167,68);fill-rule:nonzero;"/>
    <path d="M45.54,25.3C44.64,22.8 43.94,19.8 44.84,18.3C45.411,17.358 46.046,16.456 46.74,15.6L20.34,15.6C20.34,15.6 21.34,16.9 22.24,18.3C23.14,19.7 22.44,22.8 21.54,25.3C20.502,27.84 19.959,30.556 19.94,33.3C20.176,35.685 21.557,37.813 23.64,39C25.04,39.8 28.64,41 30.44,42.2C31.742,43.045 32.836,44.173 33.64,45.5C34.372,44.183 35.399,43.053 36.64,42.2C38.54,41.1 42.14,39.8 43.44,39C45.473,37.761 46.836,35.662 47.14,33.3C47.11,30.557 46.567,27.844 45.54,25.3ZM33.64,16.4L45.44,16.4L44.74,17.3L33.64,17.3L33.64,16.4ZM33.64,17.9L44.24,17.9L44.04,18.4L43.94,18.8L33.64,18.8L33.64,17.9ZM33.64,19.5L43.74,19.5L43.74,20.4L33.64,20.4L33.64,19.5ZM33.64,21.1L43.74,21.1L43.94,22L33.64,22L33.64,21.1ZM33.64,22.6L44,22.6L44.2,23.5L33.64,23.5L33.64,22.6ZM33.64,24.2L44.34,24.2L44.64,25.1L33.64,25.1L33.64,24.2ZM33.64,25.8L44.94,25.8L45.24,26.7L33.64,26.7L33.64,25.8ZM29.14,18.1C29.614,18.103 30.085,18.17 30.54,18.3C30.64,18.3 30.64,18.4 30.64,18.5L30.64,20.2C30.631,20.306 30.546,20.391 30.44,20.4L30,20.4C29.9,20.4 29.9,20.4 29.8,20.3L29.7,19.7C29.6,19.3 29.3,19.2 28.7,19.2C27.2,19.2 26.7,20.5 26.7,21.9C26.7,23.5 27.4,24.9 29.3,24.9C29.675,24.891 30.046,24.824 30.4,24.7C30.5,24.7 30.6,24.7 30.6,24.8L30.7,25.4C30.8,25.3 30.8,25.4 30.7,25.5C30.128,25.737 29.519,25.872 28.9,25.9C28.836,25.903 28.773,25.905 28.709,25.905C26.619,25.905 24.899,24.185 24.899,22.095C24.899,22.063 24.899,22.032 24.9,22C24.94,19.6 26.74,18.1 29.14,18.1ZM33.64,44.3C33.008,43.193 32.07,42.29 30.94,41.7C29.04,40.6 25.44,39.3 24.04,38.4C22.08,37.246 20.836,35.172 20.74,32.9C20.696,31.37 20.933,29.845 21.44,28.4L33.64,28.4L33.64,44.3ZM43.44,34.7C43.44,34.8 43.34,34.8 43.24,35L42.74,35.1C42.64,35.1 42.54,35.3 42.54,35.5L42.54,37.6C42.54,37.8 42.44,37.8 42.34,37.9C41.625,38.104 40.884,38.205 40.14,38.2C40.017,38.213 39.893,38.22 39.769,38.22C37.881,38.22 36.329,36.667 36.329,34.78C36.329,34.687 36.332,34.593 36.34,34.5C36.334,34.415 36.332,34.33 36.332,34.244C36.332,32.127 38.074,30.384 40.192,30.384C40.308,30.384 40.424,30.389 40.54,30.4C41.218,30.394 41.893,30.495 42.54,30.7C42.64,30.7 42.64,30.8 42.64,30.9L42.44,31.7C42.44,31.9 42.24,31.9 42.14,31.8C41.702,31.595 41.223,31.493 40.74,31.5C39.04,31.5 38.24,32.6 38.24,34.3C38.24,36 38.84,37.2 40.24,37.2C40.34,37.2 40.54,37.1 40.64,37.1C40.74,37.1 40.84,36.9 40.84,36.8L40.84,35.4C40.84,35.1 40.74,35 40.64,35L39.84,34.9C39.64,34.9 39.64,34.8 39.64,34.7L39.64,34.4C39.649,34.294 39.734,34.209 39.84,34.2L43.24,34.2C43.346,34.209 43.431,34.294 43.44,34.4L43.44,34.7ZM33.64,28.3L33.64,27.4L45.44,27.4L45.64,28.3L33.64,28.3ZM86.64,24.9C85.533,25.369 84.342,25.607 83.14,25.6C78.64,25.6 75.44,22.5 75.44,18.2C75.44,13.5 78.84,10.7 83.44,10.7C84.349,10.69 85.256,10.79 86.14,11C86.311,11.06 86.43,11.219 86.44,11.4L86.44,14.7C86.441,14.711 86.442,14.721 86.442,14.732C86.442,14.88 86.32,15.002 86.172,15.002C86.161,15.002 86.151,15.001 86.14,15L85.24,15C85.079,14.99 84.95,14.861 84.94,14.7L84.74,13.5C84.64,12.8 84.04,12.5 82.94,12.5C80,12.5 79,15 79,17.6C79,20.6 80.4,23.3 83.9,23.3C84.629,23.3 85.349,23.129 86,22.8C86.035,22.786 86.073,22.779 86.111,22.779C86.245,22.779 86.365,22.87 86.4,23L86.6,24.2C86.8,24.6 86.8,24.8 86.6,24.9M101.14,25.3L95.74,25.3C95.729,25.301 95.719,25.302 95.708,25.302C95.56,25.302 95.438,25.18 95.438,25.032C95.438,25.021 95.439,25.011 95.44,25L95.44,24.4C95.45,24.239 95.579,24.11 95.74,24.1L96.54,23.9C96.74,23.9 96.94,23.7 96.94,23.2L96.94,18.6C96.994,18.416 97.022,18.225 97.022,18.033C97.022,16.936 96.119,16.033 95.022,16.033C93.925,16.033 93.022,16.936 93.022,18.033C93.022,18.122 93.028,18.211 93.04,18.3L93.04,23.2C93.018,23.492 93.177,23.77 93.44,23.9L94.24,24.1C94.401,24.11 94.53,24.239 94.54,24.4L94.54,25C94.541,25.011 94.542,25.021 94.542,25.032C94.542,25.18 94.42,25.302 94.272,25.302C94.261,25.302 94.251,25.301 94.24,25.3L88.84,25.3C88.829,25.301 88.819,25.302 88.808,25.302C88.66,25.302 88.538,25.18 88.538,25.032C88.538,25.021 88.539,25.011 88.54,25L88.54,24.4C88.55,24.239 88.679,24.11 88.84,24.1L89.64,23.9C89.84,23.9 90.04,23.7 90.04,23.2L90.04,12.2C90.04,11.9 89.94,11.5 89.64,11.5L88.84,11.4C88.679,11.39 88.55,11.261 88.54,11.1L88.54,10.5C88.539,10.489 88.538,10.479 88.538,10.468C88.538,10.32 88.66,10.198 88.808,10.198C88.819,10.198 88.829,10.199 88.84,10.2L92.74,9.9C92.94,9.9 93.14,10 93.14,10.2L93.14,16L93.24,16C94.132,15.073 95.354,14.534 96.64,14.5C96.727,14.493 96.814,14.489 96.901,14.489C98.678,14.489 100.141,15.952 100.141,17.729C100.141,17.753 100.141,17.776 100.14,17.8L100.14,23.4C100.118,23.692 100.277,23.97 100.54,24.1L101.34,24.3C101.501,24.31 101.63,24.439 101.64,24.6L101.64,25.2C101.47,25.212 101.302,25.245 101.14,25.3M104.84,12.9C104.781,12.907 104.721,12.91 104.661,12.91C103.778,12.91 103.051,12.183 103.051,11.3C103.051,10.417 103.778,9.69 104.661,9.69C104.721,9.69 104.781,9.693 104.84,9.7C106.04,9.7 106.64,10.3 106.64,11.2C106.64,12.4 105.94,12.9 104.84,12.9M108.24,25.2C107.672,25.449 107.06,25.585 106.44,25.6C104.14,25.6 103.44,24.5 103.44,22.8L103.44,16.7C103.44,16.4 103.34,16 103.04,16L102.24,15.9C102.079,15.89 101.95,15.761 101.94,15.6L101.94,14.9C101.939,14.889 101.938,14.879 101.938,14.868C101.938,14.72 102.06,14.598 102.208,14.598C102.219,14.598 102.229,14.599 102.24,14.6L106.04,14.3C106.24,14.3 106.44,14.4 106.44,14.6L106.44,22.7C106.44,23.4 106.74,23.8 107.34,23.8C107.545,23.816 107.751,23.781 107.94,23.7C108.129,23.619 108.24,23.6 108.34,24L108.44,25C108.44,25 108.34,25.2 108.24,25.2M116.14,17.4C116.14,17.395 116.14,17.39 116.14,17.386C116.14,16.623 115.513,15.996 114.75,15.996C114.713,15.996 114.677,15.997 114.64,16C112.84,16 112.34,18 112.34,19.6C112.34,21 112.74,23.1 114.44,23.1C115.343,23.122 116.108,22.403 116.14,21.5L116.14,17.4ZM113,29.7C111.905,29.704 110.819,29.501 109.8,29.1C109.582,28.989 109.492,28.72 109.6,28.5L109.9,27.2C109.929,27.016 110.089,26.879 110.275,26.879C110.318,26.879 110.36,26.886 110.4,26.9C111.272,27.333 112.227,27.572 113.2,27.6C114.8,27.6 116.1,27 116.1,25.2L116.1,23.9C115.329,24.751 114.247,25.256 113.1,25.3C110.7,25.3 109.1,23.2 109.1,20.3C109.1,16.6 111.2,14.3 115,14.3C116.291,14.295 117.574,14.498 118.8,14.9C118.959,14.976 119.071,15.126 119.1,15.3L119.1,24.6C119.1,28.3 116.2,29.7 113,29.7M136.84,15.7L136.44,15.8C136.149,15.88 135.92,16.109 135.84,16.4L133.94,25.2C133.931,25.306 133.846,25.391 133.74,25.4L131,25.4C131,25.4 130.9,25.4 130.8,25.2L129.4,20.4C129.242,20.017 129.141,19.613 129.1,19.2C129.012,19.614 128.878,20.016 128.7,20.4L127,25.1C126.991,25.206 126.906,25.291 126.8,25.3L124.1,25.3C124,25.3 124,25.2 124,25.1L122.1,16.3C122,15.8 121.7,15.7 121.5,15.7L121.1,15.6C120.9,15.5 120.8,15.4 120.8,15.3L120.8,14.9C120.799,14.889 120.798,14.879 120.798,14.868C120.798,14.72 120.92,14.598 121.068,14.598C121.079,14.598 121.089,14.599 121.1,14.6L126.6,14.6C126.611,14.599 126.621,14.598 126.632,14.598C126.78,14.598 126.902,14.72 126.902,14.868C126.902,14.879 126.901,14.889 126.9,14.9L126.9,15.5C126.89,15.661 126.761,15.79 126.6,15.8L125.6,16C125.3,16 125.2,16.2 125.2,16.7L126,21.4C126.076,21.829 126.109,22.264 126.1,22.7C126.2,22.4 126.4,21.8 126.5,21.4L128.2,16.7C128.209,16.594 128.294,16.509 128.4,16.5L130.4,16.5C130.5,16.5 130.6,16.5 130.6,16.6L132,21.4C132.1,21.8 132.2,22.4 132.3,22.7C132.4,22.4 132.4,21.8 132.5,21.4L133.4,16.7C133.5,16.2 133.3,16.1 133,16L131.9,15.8C131.739,15.79 131.61,15.661 131.6,15.5L131.6,14.9C131.599,14.889 131.598,14.879 131.598,14.868C131.598,14.72 131.72,14.598 131.868,14.598C131.879,14.598 131.889,14.599 131.9,14.6L136.4,14.6C136.411,14.599 136.421,14.598 136.432,14.598C136.58,14.598 136.702,14.72 136.702,14.868C136.702,14.879 136.701,14.889 136.7,14.9L136.7,15.5C137,15.6 137,15.7 136.8,15.7M143,15.7C141.4,15.7 140.8,17.6 140.8,18.9C140.8,19.1 140.8,19.2 141.1,19.2L141.9,19.2C143.2,19.2 144.6,18.7 144.6,17.3C144.542,16.445 143.855,15.758 143,15.7M142.6,20.8L141.2,20.8C141,20.8 140.9,20.8 140.9,21C141.15,22.491 142.49,23.571 144,23.5C144.841,23.535 145.675,23.327 146.4,22.9C146.6,22.8 146.8,22.9 146.8,23.1L147.1,24.4C147.1,24.6 147.1,24.7 146.9,24.8C145.856,25.358 144.684,25.633 143.5,25.6C139.6,25.6 137.6,23.3 137.6,19.8C137.599,19.753 137.598,19.707 137.598,19.66C137.598,16.555 140.153,14 143.258,14C143.272,14 143.286,14 143.3,14C145.3,14 147.4,15.1 147.4,17.4C147.5,19.9 144.7,20.8 142.6,20.8M154.84,25.2C154.232,25.422 153.587,25.524 152.94,25.5C150.64,25.5 149.94,24.4 149.94,22.7L149.94,12.2C149.94,11.9 149.84,11.5 149.54,11.5L148.74,11.4C148.579,11.39 148.45,11.261 148.44,11.1L148.44,10.5C148.439,10.489 148.438,10.479 148.438,10.468C148.438,10.32 148.56,10.198 148.708,10.198C148.719,10.198 148.729,10.199 148.74,10.2L152.54,9.9C152.74,9.9 152.94,10 152.94,10.2L152.94,22.7C152.94,23.4 153.24,23.8 153.84,23.8C154.078,23.816 154.316,23.782 154.54,23.7C154.74,23.7 154.84,23.7 154.84,23.9L154.94,25.1C155.04,25.1 154.94,25.2 154.84,25.2M161.74,25.2C161.132,25.422 160.487,25.524 159.84,25.5C157.54,25.5 156.84,24.4 156.84,22.7L156.84,12.2C156.84,11.9 156.74,11.5 156.44,11.5L155.64,11.4C155.479,11.39 155.35,11.261 155.34,11.1L155.34,10.5C155.339,10.489 155.338,10.479 155.338,10.468C155.338,10.32 155.46,10.198 155.608,10.198C155.619,10.198 155.629,10.199 155.64,10.2L159.44,9.9C159.64,9.9 159.84,10 159.84,10.2L159.84,22.7C159.84,23.4 160.14,23.8 160.74,23.8C160.978,23.816 161.216,23.782 161.44,23.7C161.64,23.7 161.74,23.7 161.74,23.9L161.94,24.9C161.94,25.1 161.94,25.2 161.74,25.2M77.74,34.5L79.04,43.2L79.14,43.2L80.44,34.5L82.74,34.5L84.14,43.2L85.44,34.5L87.74,34.5L85.54,46.2L82.94,46.2L81.64,37.8L81.54,37.8L80.24,46.2L77.64,46.2L75.54,34.5L77.74,34.5ZM88.74,34.5L91.14,34.5L91.14,46.2L88.74,46.2L88.74,34.5ZM98.44,42.6L98.44,34.5L100.64,34.5L100.64,46.2L97.94,46.2L95.04,38.1L95.04,46.2L92.84,46.2L92.84,34.5L95.54,34.5L98.44,42.6ZM105.84,44.5C106.182,44.491 106.521,44.423 106.84,44.3C107.136,44.171 107.357,43.912 107.44,43.6C107.562,43.172 107.662,42.738 107.74,42.3C107.74,41.8 107.84,41.1 107.84,40.3C107.862,39.698 107.829,39.096 107.74,38.5C107.747,38.049 107.644,37.602 107.44,37.2C107.325,36.879 107.116,36.6 106.84,36.4C106.516,36.183 106.129,36.078 105.74,36.1L104.74,36.1L104.74,44.48L105.84,44.48L105.84,44.5ZM106.24,34.5C106.93,34.458 107.619,34.596 108.24,34.9C108.729,35.156 109.142,35.535 109.44,36C109.758,36.554 109.962,37.166 110.04,37.8C110.125,38.564 110.159,39.332 110.14,40.1C110.131,41.003 110.064,41.905 109.94,42.8C109.877,43.469 109.673,44.116 109.34,44.7C109.072,45.188 108.65,45.575 108.14,45.8C107.537,46.049 106.892,46.184 106.24,46.2L102.54,46.2L102.54,34.5L106.24,34.5ZM113.84,42.4C113.833,42.841 113.901,43.281 114.04,43.7C114.146,44 114.317,44.273 114.54,44.5C114.77,44.67 115.057,44.742 115.34,44.7C115.618,44.693 115.891,44.625 116.14,44.5C116.384,44.291 116.559,44.011 116.64,43.7C116.771,43.279 116.838,42.841 116.84,42.4C116.84,41.8 116.94,41.2 116.94,40.4C116.965,39.732 116.931,39.062 116.84,38.4C116.838,37.959 116.771,37.521 116.64,37.1C116.534,36.8 116.363,36.527 116.14,36.3C115.91,36.13 115.623,36.058 115.34,36.1C115.062,36.107 114.789,36.175 114.54,36.3C114.296,36.509 114.121,36.789 114.04,37.1C113.917,37.523 113.85,37.96 113.84,38.4C113.84,38.9 113.74,39.6 113.74,40.4C113.74,41.2 113.84,41.9 113.84,42.4M111.54,37.9C111.622,37.251 111.776,36.614 112,36C112.29,35.477 112.702,35.031 113.2,34.7C113.842,34.347 114.568,34.174 115.3,34.2C116.036,34.125 116.777,34.301 117.4,34.7C117.922,35.003 118.34,35.456 118.6,36C118.929,36.579 119.101,37.234 119.1,37.9C119.185,38.697 119.219,39.499 119.2,40.3C119.219,41.135 119.185,41.97 119.1,42.8C119.006,43.45 118.838,44.088 118.6,44.7C118.306,45.194 117.894,45.606 117.4,45.9C116.051,46.433 114.549,46.433 113.2,45.9C112.706,45.606 112.294,45.194 112,44.7C111.671,44.121 111.499,43.466 111.5,42.8C111.413,41.97 111.379,41.135 111.4,40.3C111.383,39.499 111.417,38.697 111.5,37.9M122.34,34.5L123.64,43.2L125.04,34.5L127.34,34.5L128.74,43.2L130.04,34.5L132.24,34.5L130.14,46.2L127.54,46.2L126.24,37.8L126.14,37.8L124.84,46.2L122.24,46.2L120.14,34.5L122.34,34.5ZM141.84,36.6C141.624,36.201 141.192,35.965 140.74,36C140.493,36.006 140.253,36.075 140.04,36.2C139.829,36.42 139.689,36.699 139.64,37C139.51,37.455 139.443,37.926 139.44,38.4C139.44,39 139.34,39.7 139.34,40.5C139.313,41.202 139.346,41.904 139.44,42.6C139.518,43.038 139.618,43.472 139.74,43.9C139.818,44.159 139.999,44.376 140.24,44.5C140.453,44.625 140.693,44.694 140.94,44.7C141.145,44.716 141.351,44.681 141.54,44.6C141.73,44.498 141.899,44.363 142.04,44.2C142.24,44 142.24,43.7 142.34,43.3C142.43,42.805 142.464,42.302 142.44,41.8L144.84,41.8C144.857,42.402 144.823,43.004 144.74,43.6C144.65,44.122 144.481,44.628 144.24,45.1C143.976,45.531 143.594,45.878 143.14,46.1C142.54,46.359 141.894,46.495 141.24,46.5C140.517,46.553 139.793,46.415 139.14,46.1C138.646,45.806 138.234,45.394 137.94,44.9C137.611,44.321 137.439,43.666 137.44,43C137.353,42.17 137.319,41.335 137.34,40.5C137.319,39.699 137.352,38.897 137.44,38.1C137.534,37.45 137.702,36.812 137.94,36.2C138.23,35.677 138.642,35.231 139.14,34.9C139.782,34.547 140.508,34.374 141.24,34.4C141.93,34.358 142.619,34.496 143.24,34.8C143.673,35.052 144.048,35.393 144.34,35.8C144.566,36.243 144.734,36.714 144.84,37.2C144.923,37.662 144.957,38.131 144.94,38.6L142.54,38.6C142.14,37.6 142.04,37 141.84,36.6M152.54,36.5L148.34,36.5L148.34,39.2L152.24,39.2L152.24,41.2L148.34,41.2L148.34,44.3L152.64,44.3L152.64,46.2L145.94,46.2L145.94,34.5L152.54,34.5L152.54,36.5ZM159.44,42.6L159.44,34.5L161.64,34.5L161.64,46.2L158.94,46.2L156.04,38.1L156.04,46.2L153.84,46.2L153.84,34.5L156.54,34.5L159.44,42.6ZM170.04,36.5L167.54,36.5L167.54,46.2L165.14,46.2L165.14,36.5L162.64,36.5L162.64,34.5L170.04,34.5L170.04,36.5ZM174.44,39.7C174.91,39.753 175.381,39.608 175.74,39.3C176.099,38.927 176.281,38.416 176.24,37.9C176.253,37.824 176.259,37.748 176.259,37.671C176.259,36.908 175.632,36.281 174.869,36.281C174.792,36.281 174.716,36.287 174.64,36.3L173.54,36.3L173.54,39.7L174.44,39.7ZM175.44,34.5C176.267,34.439 177.087,34.689 177.74,35.2C178.299,35.831 178.587,36.658 178.54,37.5C178.555,38.168 178.382,38.826 178.04,39.4C177.691,39.917 177.152,40.276 176.54,40.4C177.027,40.454 177.483,40.664 177.84,41C178.141,41.407 178.315,41.894 178.34,42.4L178.34,44C178.34,44.6 178.44,45.1 178.44,45.4C178.44,45.7 178.64,46 178.84,46.1L178.84,46.2L176.24,46.2C176.129,46.018 176.061,45.812 176.04,45.6C176.04,45.4 175.94,45.2 175.94,44.9L175.84,42.7C175.862,42.311 175.757,41.924 175.54,41.6C175.293,41.311 174.918,41.161 174.54,41.2L173.24,41.2L173.24,46.1L170.84,46.1L170.84,34.5L175.44,34.5ZM180.24,34.5L180.24,46.2L186.94,46.2L186.94,44.3L182.54,44.3L182.54,41.2L186.54,41.2L186.54,39.2L182.54,39.2L182.54,36.5L186.74,36.5L186.74,34.5L180.24,34.5Z" style="fill:rgb(62,167,68);fill-rule:nonzero;"/>
</svg>
